<?xml version="1.0" encoding="UTF-8" standalone="no"?>

<svg
   version="1.1"
   id="svg1"
   width="512"
   height="512"
   viewBox="0 0 512 512"
   xmlns="http://www.w3.org/2000/svg"
   xmlns:svg="http://www.w3.org/2000/svg">
  <defs
     id="defs1" />
  <g
     id="g1">
    <path
       style="fill:white;stroke:none;image-rendering:auto"
       d="m 239,74 c -9.801,-8.9467 -26.611,-25.276 -40,-27.517 -13.278,-2.2223 -23.562,12.8724 -16.91,24.5162 7.919,13.8647 30.255,24.8828 42.91,34.3738 4.464,3.349 12.3,7.239 14.397,12.666 3.115,8.067 0.603,21.344 0.603,29.961 v 67 c -12.938,-9.113 -23.812,-22.812 -35,-34 L 138,114 C 128.223,104.223 110.237,79.948 95.2245,96.108 80.7106,111.731 105.207,129.207 115,139 l 66,66 c 11.188,11.188 24.887,22.062 34,35 h -67 c -8.617,0 -21.894,2.512 -29.961,-0.603 C 112.612,237.3 108.722,229.464 105.373,225 95.882,212.345 84.8639,190.009 70.9992,182.09 59.3554,175.438 44.2607,185.722 46.483,199 c 2.2474,13.427 18.7829,29.907 27.517,40 -10.3153,2.456 -21.972,-1.497 -32,1.653 -12.353,3.879 -13.5989,22.827 -2.9846,29.338 9.4078,5.771 24.4183,0.493 34.9846,3.009 -8.7341,10.093 -25.2696,26.573 -27.517,40 -2.2223,13.278 12.8724,23.562 24.5162,16.91 13.8647,-7.919 24.8828,-30.255 34.3738,-42.91 3.349,-4.464 7.239,-12.3 12.666,-14.397 C 126.106,269.488 139.383,272 148,272 h 67 c -9.113,12.938 -22.812,23.812 -34,35 l -67,67 c -9.777,9.777 -34.052,27.763 -17.892,42.775 C 111.731,431.289 129.207,406.793 139,397 l 66,-66 c 11.188,-11.188 22.062,-24.887 35,-34 v 67 c 0,8.617 2.512,21.894 -0.603,29.961 -2.097,5.427 -9.933,9.317 -14.397,12.666 -12.655,9.491 -34.99,20.509 -42.91,34.374 -6.652,11.644 3.632,26.738 16.91,24.516 13.389,-2.241 30.199,-18.57 40,-27.517 2.516,10.566 -2.762,25.577 3.009,34.985 6.511,10.614 25.459,9.368 29.338,-2.985 3.15,-10.028 -0.803,-21.685 1.653,-32 10.093,8.734 26.573,25.27 40,27.517 13.278,2.222 23.562,-12.872 16.91,-24.516 -7.919,-13.865 -30.255,-24.883 -42.91,-34.374 -4.464,-3.349 -12.3,-7.239 -14.397,-12.666 C 269.488,385.894 272,372.617 272,364 v -67 c 12.938,9.114 23.812,22.812 35,34 l 66,66 c 9.793,9.793 27.269,34.289 42.892,19.775 C 432.052,401.763 407.777,383.777 398,374 l -67,-67 c -11.188,-11.188 -24.887,-22.062 -34,-35 h 67 c 8.617,0 21.894,-2.512 29.961,0.603 5.427,2.097 9.317,9.933 12.666,14.397 9.491,12.655 20.509,34.991 34.374,42.91 11.644,6.652 26.738,-3.632 24.516,-16.91 -2.247,-13.427 -18.783,-29.907 -27.517,-40 10.566,-2.516 25.577,2.762 34.985,-3.009 10.614,-6.511 9.368,-25.459 -2.985,-29.338 -10.028,-3.15 -21.685,0.803 -32,-1.653 8.734,-10.093 25.27,-26.573 27.517,-40 2.222,-13.278 -12.872,-23.562 -24.516,-16.91 -13.865,7.919 -24.883,30.255 -34.374,42.91 -3.349,4.464 -7.239,12.3 -12.666,14.397 C 385.894,242.512 372.617,240 364,240 h -67 c 9.114,-12.938 22.812,-23.812 34,-35 l 67,-67 c 9.777,-9.777 34.052,-27.763 17.892,-42.7755 C 400.269,80.7106 382.793,105.207 373,115 l -66,66 c -11.188,11.188 -22.062,24.887 -35,34 v -67 c 0,-8.617 -2.512,-21.894 0.603,-29.961 2.097,-5.427 9.933,-9.317 14.397,-12.666 12.655,-9.491 34.991,-20.5091 42.91,-34.3738 C 336.562,59.3554 326.278,44.2607 313,46.483 299.573,48.7305 283.093,65.2659 273,74 270.544,63.6847 274.497,52.028 271.347,42 267.468,29.647 248.52,28.4012 242.009,39.0154 236.238,48.4232 241.516,63.4337 239,74 Z"
       id="path1" />
  </g>
</svg>
