<?xml version="1.0" encoding="UTF-8" standalone="no"?>

<svg
   version="1.1"
   id="svg1"
   width="512"
   height="512"
   viewBox="0 0 512 512"
   xmlns="http://www.w3.org/2000/svg"
   xmlns:svg="http://www.w3.org/2000/svg">
  <defs
     id="defs1" />
  <g
     id="g1">
    <path
       style="fill:black;stroke:none"
       d="M 238,26.4244 C 194.185,32.18 153.71,44.3942 118,71.6543 7.62254,155.914 -7.73048,326.208 93.0147,424.961 121.639,453.019 155.863,472.308 194,483.975 c 28.157,8.615 59.887,10.268 89,6.74 33.692,-4.084 65.051,-15.817 94,-33.316 C 395.34,446.313 411.738,431.806 426.075,416 520.086,312.351 499.718,142.508 383,64.6667 362.111,50.7354 339.369,39.8959 315,33.6296 290.594,27.3539 263.226,23.1107 238,26.4244 m 8,31.8611 c 16.28,-1.9208 34.046,0.9228 50,4.1142 C 390.665,81.3364 458.157,171.17 453.961,267 449.649,365.452 374.935,447.083 277,458.715 c -23.329,2.77 -47.221,0.88 -70,-4.842 -22.478,-5.645 -43.825,-15.186 -63,-28.217 C 41.2056,355.798 29.3024,204.1 115.09,116.039 150.734,79.4498 196.719,64.1 246,58.2855 m 5,16.2724 C 242.761,76.7164 238.964,84.0994 238.171,92 236.3,110.632 238,130.27 238,149 v 73 c 0,11.528 -2.077,25.929 1.703,36.999 2.474,7.246 11.342,13.947 16.087,20.001 12.2,15.564 23.992,31.45 36.21,47 9.103,11.586 17.805,23.488 27.004,35 5.279,6.606 11.997,12.191 20.996,9.146 25.514,-8.634 -0.834,-36.393 -9.211,-47.146 -13.455,-17.272 -26.977,-34.522 -40.163,-52 -5.274,-6.99 -13.832,-14.742 -16.888,-23 C 269.802,237.362 273,220.317 273,209 v -88 c 0,-15.008 4.624,-53.4172 -22,-46.4421 z"
       id="path1" />
  </g>
</svg>
