<?xml version="1.0" encoding="UTF-8" standalone="no"?>

<svg
   version="1.1"
   id="svg1"
   width="512"
   height="512"
   viewBox="0 0 512 512"
   xmlns="http://www.w3.org/2000/svg"
   xmlns:svg="http://www.w3.org/2000/svg">
  <defs
     id="defs1" />
  <g
     id="g1">
    <path
       style="fill:black;stroke:none"
       d="M 60,27.4391 C 15.6298,34.4261 26,89.655 26,122 v 252 61 c 0,13.89 -0.7391,27.112 7.7886,39 11.0538,15.41 28.0785,16 45.2114,16 h 60 214 68 c 11.99,0 25.213,1.55 37,-0.808 42.58,-8.518 32,-63.456 32,-95.192 V 140 81 C 490,67.067 490.61,53.6002 481.481,42.0008 469.777,27.1271 453.223,27 436,27 H 375 164 96 C 84.2891,27 71.5787,25.6158 60,27.4391 m 4.0039,29.9552 C 73.4858,55.1859 85.277,57 95,57 h 64 203 70 c 7.107,0 20.083,-2.5123 25.347,3.3943 C 462.05,65.6712 460,76.4662 460,83 v 58 230 66 c 0,7.503 2.168,19.38 -7.015,22.347 C 444.322,462.147 432.063,460 423,460 H 360 151 82 c -7.0005,0 -19.313,2.406 -23.9907,-4.214 C 53.8917,449.959 56,438.792 56,432 V 373 147 79 C 56,71.2626 54.1021,59.7004 64.0039,57.3943 M 255,98.5586 C 246.706,99.5553 244.017,107.473 240.753,114 l -24,48 -90.506,181 -21.494,43 c -2.98,5.961 -7.068,13.288 -3.435,19.957 3.944,7.24 12.732,6.043 19.682,6.043 h 52 157 c 23.174,0 51.345,4.417 74,-0.279 8.315,-1.723 10.789,-10.553 8.069,-17.721 -6.631,-17.481 -16.953,-34.274 -25.316,-51 L 292.247,154 270.753,111 C 267.428,104.354 263.645,97.5199 255,98.5586 Z"
       id="path1" />
  </g>
</svg>
