<?xml version="1.0" encoding="UTF-8" standalone="no"?>

<svg
   version="1.1"
   id="svg1"
   width="512"
   height="512"
   viewBox="0 0 512 512"
   xmlns="http://www.w3.org/2000/svg"
   xmlns:svg="http://www.w3.org/2000/svg">
  <defs
     id="defs1" />
  <g
     id="g1">
    <path
       style="fill:black;stroke:none"
       d="M 252,16.5332 C 246.373,17.892 241.899,22.379 240.533,28 237.652,39.8552 240,54.8156 240,67 c 0,6.0079 -1.087,13.3006 1.148,19 2.934,7.4801 11.16,11.3242 18.852,9.4668 C 265.627,94.108 270.1,89.621 271.467,84 274.349,72.1449 272,57.1844 272,45 272,38.9921 273.087,31.6994 270.852,26 267.918,18.52 259.692,14.6758 252,16.5332 M 92,82.6528 C 83.0321,85.4691 79.3891,96.8647 83.4568,105 c 2.5417,5.083 7.5871,9.044 11.5432,13 9.616,9.616 26.04,34.597 42,28.736 9.133,-3.354 13.076,-14.163 8.697,-22.736 -2.588,-5.067 -7.73,-9.033 -11.697,-13 C 123.895,100.895 108.723,77.4009 92,82.6528 m 317,0 c -5.303,1.6626 -9.206,6.5547 -13,10.3472 -9.096,9.092 -25.071,20.07 -30.146,32 -4.968,11.679 5.225,25.562 18.146,22.231 12.836,-3.308 24.892,-21.122 34,-30.231 3.867,-3.867 8.887,-7.803 10.991,-13 C 434.273,90.953 422.196,78.5154 409,82.6528 M 243,112.424 c -24.567,3.235 -47.197,10.216 -68,24.091 -14.856,9.909 -27.578,22.933 -37.856,37.485 -41.522,58.79 -30.104,143.763 23.856,190.711 31.871,27.729 74.357,39.475 116,34 19.307,-2.539 38.413,-9.845 55,-19.915 C 345.993,370.3 358.669,358.832 368.789,346 431.935,265.931 392.431,141.489 292,116.375 c -15.624,-3.907 -32.926,-6.067 -49,-3.951 m 5,31.861 C 321.909,135.537 380.383,210.526 365.338,280 354.568,329.733 313.149,361.896 264,367.715 190.083,376.465 131.619,301.463 146.662,232 157.432,182.267 198.851,150.103 248,144.285 M 28,240.533 c -14.1579,3.442 -16.038,23.64 -2.9992,29.894 C 30.0969,272.872 36.516,272 42,272 c 12.9858,0 30.5768,3.093 43,-0.804 13.4307,-4.213 14.5879,-23.585 1.9992,-29.623 C 81.6509,239.007 74.7577,240 69,240 c -12.7923,0 -28.5565,-2.492 -41,0.533 m 400,0 c -14.158,3.442 -16.038,23.64 -2.999,29.894 5.096,2.445 11.515,1.573 16.999,1.573 12.986,0 30.577,3.093 43,-0.804 13.431,-4.213 14.588,-23.585 1.999,-29.623 C 481.651,239.007 474.758,240 469,240 c -12.792,0 -28.557,-2.492 -41,0.533 m -299,124 c -13.221,2.561 -25.854,21.32 -35,30.467 -3.8669,3.867 -8.8869,7.803 -10.9907,13 -5.0596,12.498 5.3313,23.778 17.9907,21.786 5.916,-0.931 9.98,-5.773 14,-9.786 9.357,-9.341 25.944,-20.737 31.146,-33 4.754,-11.208 -4.55,-24.906 -17.146,-22.467 m 249,-0.05 c -10.93,1.834 -16.684,13.76 -11.697,23.517 2.59,5.067 7.729,9.032 11.697,13 10.153,10.153 24.468,32.404 41,28.606 9.626,-2.212 13.781,-14.13 9.543,-22.606 -2.349,-4.699 -6.887,-8.344 -10.543,-12 -9.25,-9.25 -25.097,-33.017 -40,-30.517 m -126,52.05 c -5.627,1.359 -10.101,5.846 -11.467,11.467 -2.881,11.855 -0.533,26.816 -0.533,39 0,6.008 -1.087,13.301 1.148,19 2.934,7.48 11.16,11.324 18.852,9.467 5.627,-1.359 10.1,-5.846 11.467,-11.467 2.882,-11.855 0.533,-26.816 0.533,-39 0,-6.008 1.087,-13.301 -1.148,-19 -2.934,-7.48 -11.16,-11.324 -18.852,-9.467 z"
       id="path1" />
  </g>
</svg>
