<?xml version="1.0" encoding="UTF-8" standalone="no"?>

<svg
   version="1.1"
   id="svg1"
   width="512"
   height="512"
   viewBox="0 0 512 512"
   xmlns="http://www.w3.org/2000/svg"
   xmlns:svg="http://www.w3.org/2000/svg">
  <defs
     id="defs1" />
  <g
     id="g1">
    <path
       style="fill:black;stroke:none"
       d="M 60,22.4391 C 15.913,29.3815 26,83.8565 26,116 v 254 61 c 0,13.478 -0.6664,26.556 7.7639,38 11.814,16.037 29.2645,16 47.2361,16 h 58 214 68 c 11.99,0 25.213,1.549 37,-0.808 42.61,-8.521 32,-63.398 32,-95.192 V 135 76 C 490,62.0191 490.53,48.7003 481.471,37.0008 470.199,22.4432 453.746,22 437,22 H 376 164 96 C 84.2891,22 71.5787,20.6158 60,22.4391 m 4.0039,29.9552 C 73.4858,50.1859 85.277,52 95,52 h 64 203 70 c 7.107,0 20.083,-2.5123 25.347,3.3943 C 462.05,60.6712 460,71.4661 460,78 v 58 230 66 c 0,7.503 2.168,19.38 -7.015,22.347 C 444.322,457.147 432.063,455 423,455 H 360 151 82 c -7.0005,0 -19.313,2.406 -23.9907,-4.214 C 53.8917,444.959 56,433.792 56,427 V 368 142 74 C 56,66.2626 54.1021,54.7004 64.0039,52.3943 M 235,256 v 1 c -18.064,12.725 -33.368,32.368 -49,48 -27.238,27.238 -55.865,53.621 -81.907,82 -9.8382,10.722 -6.9932,33.58 11.907,28.21 12.674,-3.601 23.957,-20.167 33,-29.21 24.172,-24.172 47.847,-48.847 72,-73 l 25,-25 c 2.391,-2.391 6.247,-7.944 10,-7.944 3.458,0 6.803,4.749 9,6.944 l 20,20 82,82 c 9.623,9.623 29.644,38.18 44.775,21.892 C 426.047,395.53 398.498,376.498 389,367 l -82,-82 -20,-20 c -2.195,-2.197 -6.944,-5.542 -6.944,-9 0,-3.753 5.554,-7.609 7.944,-10 l 25,-25 72,-72 c 9.043,-9.043 25.609,-20.326 29.21,-33 5.37,-18.9002 -17.488,-21.7453 -28.21,-11.907 -27.559,25.289 -52.564,53.471 -79,79.907 -16.267,16.267 -36.759,32.203 -50,51 L 149,127 C 139.723,117.723 122.543,92.0774 107,98.1482 81.7201,108.022 110.978,132.978 120,142 l 76,76 c 12.458,12.458 24.597,27.854 39,38 z"
       id="path1" />
  </g>
</svg>
