<?xml version="1.0" encoding="UTF-8" standalone="no"?>

<svg
   version="1.1"
   id="svg1"
   width="512"
   height="512"
   viewBox="0 0 512 512"
   xmlns="http://www.w3.org/2000/svg"
   xmlns:svg="http://www.w3.org/2000/svg">
  <defs
     id="defs1" />
  <g
     id="g1">
    <path
       style="fill:black;stroke:none"
       d="M 99.5,471.53724 C 70.403301,466.20729 47.040306,444.53746 38.691501,415.13565 L 36.523316,407.5 36.214671,263 C 36.015245,169.63314 36.266393,115.13831 36.924406,109 38.995402,89.680623 45.607722,76.143578 59.894882,61.97379 70.732501,51.225205 80.158309,45.721124 94.5,41.766572 c 7.98214,-2.200981 8.23971,-2.206634 115.36917,-2.532396 74.45127,-0.226393 108.96995,0.0058 112.59045,0.757441 14.9744,3.108673 17.50761,21.50689 4.04038,29.344439 C 325.02567,70.194074 295.17991,70.631418 212.94721,71 l -111.55278,0.5 -7.899371,3.904536 C 83.232247,80.477286 76.976568,86.74847 72.199198,96.753183 L 68.5,104.5 l -0.295648,149 c -0.330511,166.56983 -0.770335,155.67266 6.752964,167.31267 6.708035,10.37863 17.994569,17.82373 30.476344,20.10354 4.08432,0.74601 50.21134,1.07838 148,1.06643 119.53943,-0.0146 143.1398,-0.24484 148.83615,-1.45192 18.64453,-3.95086 32.67757,-18.7124 35.67853,-37.53072 0.66686,-4.18173 1.03925,-43.69919 1.04411,-110.79966 0.008,-112.43417 -0.2484,-106.87555 5.16254,-111.86092 3.295,-3.03587 9.55805,-4.53355 13.9209,-3.32891 3.99099,1.10197 9.2875,6.12631 10.86278,10.30459 1.45988,3.87221 1.47157,208.59066 0.0125,219.08093 -3.77385,27.13298 -22.2599,50.7428 -47.88263,61.15424 -13.64794,5.54566 -10.86734,5.45745 -168.94954,5.35948 C 138.29451,472.83921 104.97162,472.53953 99.5,471.53724 Z M 227.92168,289.7262 C 223.43679,286.70384 220,281.43204 220,277.57491 220,274.82003 231.58382,218.16999 234.02222,209 c 0.74601,-2.80551 17.65282,-20.19153 85.20423,-87.61934 90.76884,-90.602736 86.96066,-87.185156 101.23365,-90.850211 16.3478,-4.197831 35.21965,0.728365 47.00635,12.270263 10.77495,10.551172 15.60574,21.749223 15.62876,36.228395 0.0167,10.481964 -1.10872,15.230782 -5.68093,23.972063 -2.99034,5.71702 -13.56333,16.64502 -87.65739,90.6007 L 305.5,277.7014 l -34,7.1549 c -18.7,3.9352 -35.39595,7.15238 -37.10212,7.1493 -1.70616,-0.003 -4.62045,-1.02881 -6.4762,-2.2794 z m 48.23069,-37.78991 15.65237,-3.2346 57.84382,-57.85027 57.84382,-57.85027 -14.24677,-14.24676 -14.24676,-14.24677 -57.85027,57.84382 -57.85027,57.84382 -3.2346,15.65237 c -1.77902,8.6088 -3.48627,16.73 -3.79388,18.0471 -0.49329,2.11209 -0.27665,2.32873 1.83544,1.83544 1.3171,-0.30761 9.4383,-2.01486 18.0471,-3.79388 z M 450.02725,88.434276 c 6.12153,-12.616152 -1.81452,-27.088667 -15.47538,-28.221532 -8.57106,-0.710779 -11.87907,1.010906 -23.30906,12.131431 l -10.32652,10.046939 14.276,14.301519 14.276,14.301517 9.29311,-9.24707 c 5.11121,-5.085896 10.18085,-11.076656 11.26585,-13.312804 z"
       id="path1" />
  </g>
</svg>
