<?xml version="1.0" encoding="UTF-8" standalone="no"?>

<svg
   version="1.1"
   id="svg1"
   width="512"
   height="512"
   viewBox="0 0 512 512"
   xmlns="http://www.w3.org/2000/svg"
   xmlns:svg="http://www.w3.org/2000/svg">
  <defs
     id="defs1" />
  <g
     id="g1">
    <path
       style="fill:black;stroke:none"
       d="M 60,22.4391 C 15.913,29.3815 26,83.8565 26,116 v 254 61 c 0,13.478 -0.6664,26.556 7.7639,38 11.814,16.037 29.2645,16 47.2361,16 h 58 214 68 c 11.99,0 25.213,1.549 37,-0.808 42.61,-8.521 32,-63.398 32,-95.192 V 135 76 C 490,62.0191 490.53,48.7003 481.471,37.0008 470.199,22.4432 453.746,22 437,22 H 376 164 96 C 84.2891,22 71.5787,20.6158 60,22.4391 m 4.0039,29.9552 C 73.4858,50.1859 85.277,52 95,52 h 64 203 70 c 7.107,0 20.083,-2.5123 25.347,3.3943 C 462.05,60.6712 460,71.4661 460,78 v 58 230 66 c 0,7.503 2.168,19.38 -7.015,22.347 C 444.322,457.147 432.063,455 423,455 H 360 151 82 c -7.0005,0 -19.313,2.406 -23.9907,-4.214 C 53.8917,444.959 56,433.792 56,427 V 368 142 74 C 56,66.2626 54.1021,54.7004 64.0039,52.3943 M 112,241.44 c -14.2984,2.303 -21.8559,21.721 -5.999,28.565 7.283,3.144 16.274,1.995 23.999,1.995 h 46 163 50 c 7.601,0 16.958,0.693 22.775,-5.214 7.514,-7.628 4.077,-20.646 -5.775,-24.173 C 390.805,237.175 369.003,241 353,241 H 192 c -25.75,0 -54.592,-3.653 -80,0.44 z"
       id="path1" />
  </g>
</svg>
