<?xml version="1.0" encoding="UTF-8" standalone="no"?>
<!-- Created with Inkscape (http://www.inkscape.org/) -->

<svg
   version="1.1"
   id="svg2"
   width="512"
   height="512"
   viewBox="0 0 512 512"
   xmlns="http://www.w3.org/2000/svg"
   xmlns:svg="http://www.w3.org/2000/svg">
  <defs
     id="defs6" />
  <g
     id="g8">
    <path
       style="fill:#000000"
       d="m 56.617739,488.89384 c -6.213902,-1.46861 -15.287982,-6.81243 -19.705313,-11.60467 -2.245861,-2.43647 -5.507419,-7.43578 -7.247905,-11.10956 L 26.5,459.5 V 258.44814 57.396274 l 3.73472,-7.556692 C 34.732847,40.73824 40.523473,35.069014 49.820391,30.664521 L 56.5,27.5 h 201.55186 201.55187 l 7.55669,3.73472 c 9.10134,4.498127 14.77057,10.288753 19.17506,19.585671 L 489.5,57.5 v 201 201 l -3.16452,6.67961 c -4.40441,9.29674 -10.07373,15.08753 -19.17485,19.58567 l -7.55648,3.73472 -199.55208,0.15569 c -118.1931,0.0922 -201.134898,-0.2184 -203.434331,-0.76185 z M 454.52794,458.80531 C 460.35346,456.15103 460,469.08326 460,258.59671 460,110.70276 459.71841,64.476088 458.80531,62.472058 456.15084,56.646127 469.13673,57 258,57 46.863271,57 59.849157,56.646127 57.194685,62.472058 55.34725,66.526736 55.544287,451.54993 57.395507,454.88993 c 2.951921,5.3259 -8.469807,5.03654 200.307443,5.07463 148.50093,0.0271 194.81999,-0.24571 196.82499,-1.15925 z M 249,427.67787 c -3.025,-0.69934 -6.47338,-1.80785 -7.66306,-2.46336 -2.49147,-1.37277 -3.3554,-3.90547 -40.83602,-119.71451 -13.52822,-41.8 -25.51189,-78.8125 -26.63037,-82.25 L 171.83694,217 h -14.48421 c -8.02181,0 -15.3426,-0.4594 -16.40812,-1.02964 -3.93785,-2.10748 -5.40618,-6.83514 -5.42598,-17.47036 -0.0231,-12.37709 1.95888,-17.4127 7.39202,-18.7813 1.87586,-0.47253 15.60086,-0.71504 30.5,-0.53892 22.8615,0.27024 27.55793,0.57737 30.09171,1.96784 4.83078,2.65101 6.5537,5.24796 8.98269,13.53959 1.25879,4.29704 13.83632,47.41279 27.95007,95.81279 28.58344,98.02064 26.46419,90.93402 27.02583,90.37238 0.22764,-0.22763 16.4231,-64.95699 35.98993,-143.84301 28.01699,-112.95386 36.02692,-143.909058 37.698,-145.687841 3.19043,-3.39606 10.61923,-4.594771 26.00135,-4.195577 C 382.4871,87.543972 385,88.557277 385,94.343723 c 0,3.490117 -90.52493,325.922697 -92.30509,328.773207 -2.55793,4.09589 -7.38128,5.24976 -23.19491,5.54881 -9.58572,0.18127 -16.98524,-0.1753 -20.5,-0.98787 z"
       id="path170" />
  </g>
</svg>
