<svg
   version="1.1"
   id="svg1"
   width="512"
   height="512"
   viewBox="0 0 512 512"
   xmlns="http://www.w3.org/2000/svg"
   xmlns:svg="http://www.w3.org/2000/svg">
  <defs
     id="defs1" />
  <g
     id="g1">
    <path
       style="fill:black;stroke:none"
       d="M 60,22.4391 C 15.913,29.3815 26,83.8565 26,116 v 254 61 c 0,13.478 -0.6664,26.556 7.7639,38 11.814,16.037 29.2645,16 47.2361,16 h 58 214 68 c 11.99,0 25.213,1.549 37,-0.808 42.61,-8.521 32,-63.398 32,-95.192 V 135 76 C 490,62.0191 490.53,48.7003 481.471,37.0008 470.199,22.4432 453.746,22 437,22 H 376 164 96 C 84.2891,22 71.5787,20.6158 60,22.4391 m 4.0039,29.9552 C 73.4858,50.1859 85.277,52 95,52 h 64 203 70 c 7.107,0 20.083,-2.5123 25.347,3.3943 C 462.05,60.6712 460,71.4661 460,78 v 58 230 66 c 0,7.503 2.168,19.38 -7.015,22.347 C 444.322,457.147 432.063,455 423,455 H 360 151 82 c -7.0005,0 -19.313,2.406 -23.9907,-4.214 C 53.8917,444.959 56,433.792 56,427 V 368 142 74 c 0,-7.7374 -1.8979,-19.2996 8.0039,-21.6057 m 44.0001,48.2587 c -7.981,2.533 -9.4577,11.365 -6.652,18.347 7.145,17.781 17.323,34.856 25.895,52 l 94,188 c 7.333,14.666 14.604,29.366 22.001,44 3.391,6.71 8.466,12.336 16.751,10.042 7.242,-2.004 9.72,-9.974 12.754,-16.042 l 21.494,-43 89,-178 24.506,-49 c 3.274,-6.549 8.422,-14.768 3.509,-21.906 C 406.857,98.696 398.746,100 392,100 H 340 180 131 c -7.083,0 -16.196,-1.506 -22.996,0.653 z"
       id="path1" />
  </g>
</svg>

