<svg
   version="1.1"
   id="svg1"
   width="512"
   height="512"
   viewBox="0 0 512 512"
   xmlns="http://www.w3.org/2000/svg"
   xmlns:svg="http://www.w3.org/2000/svg">
  <defs
     id="defs1" />
  <g
     id="g1">
    <path
       style="fill:black;stroke:none"
       d="M 198,44.5185 C 173.511,49.622 147.85,67.4075 129,83.081 55.7299,144.003 29.4,245.939 62.0532,335 101.849,443.543 223.814,503.016 334,471.573 379.918,458.469 421.657,430.213 450.373,392 c 8.579,-11.415 32.229,-37.957 12.612,-49.991 -8.101,-4.969 -17.934,-0.129 -25.985,2.27 -15.282,4.554 -32.042,7.527 -48,7.717 -51.949,0.618 -102.927,-19.309 -140,-56 C 203.942,251.403 183.906,186.063 195.611,124 199.495,103.405 209.292,86.4012 216.034,67 220.189,55.043 211.246,41.7581 198,44.5185 M 319,50 c -8.762,12.9991 -13.114,15.807 -28,20 L 302.058,86 302,105 320,98.9182 338,105 337.579,87 349,70 C 334.176,65.8244 329.701,62.9086 321,50 h -2 M 169,95 c -1.809,13.436 -6.088,26.441 -7.715,40 -2.808,23.406 -1.613,47.952 3.377,71 18.592,85.874 87.442,154.741 173.338,173.338 25.756,5.576 50.996,4.714 77,2.662 -3.178,11.323 -18.977,21.05 -28,27.87 C 354.64,434.332 313.551,448 273,448 150.033,448 55.7997,329.862 85.6265,210 94.2708,175.262 112.333,143.063 138,118.015 146.405,109.813 157.631,98.6291 169,95 m 214,19 c -8.762,12.999 -13.114,15.807 -28,20 L 366.058,150 366,169 384,162.918 402,169 401.579,151 413,134 c -14.824,-4.176 -19.299,-7.091 -28,-20 h -2 m -124,16 c -5.141,7.614 -8.594,9.149 -17,12 4.584,7.94 7,11.624 7,21 h 22 c 0,-9.376 2.416,-13.06 7,-21 -8.316,-3.12 -11.813,-4.317 -17,-12 h -2 m 52,48 c -6.583,9.766 -10.39,10.997 -21,15 6.528,9.547 9.489,13.218 8,25 l 14,-3.58 14,3.58 c -1.489,-11.782 1.472,-15.453 8,-25 -10.609,-4.003 -14.417,-5.234 -21,-15 z"
       id="path1" />
  </g>
</svg>

