<?xml version="1.0" encoding="UTF-8" standalone="no"?>

<svg
   version="1.1"
   id="svg1"
   width="512"
   height="512"
   viewBox="0 0 512 512"
   xmlns="http://www.w3.org/2000/svg"
   xmlns:svg="http://www.w3.org/2000/svg">
  <defs
     id="defs1" />
  <g
     id="g1">
    <path
       style="fill:black;stroke:none"
       d="m 56.617739,488.89384 c -6.213902,-1.46861 -15.287982,-6.81243 -19.705313,-11.60467 -2.245861,-2.43647 -5.507419,-7.43578 -7.247905,-11.10956 L 26.5,459.5 V 258.44814 57.396274 l 3.73472,-7.556692 C 34.732847,40.73824 40.523473,35.069014 49.820391,30.664521 L 56.5,27.5 h 201.55186 201.55187 l 7.55669,3.73472 c 9.10134,4.498127 14.77057,10.288753 19.17506,19.585671 L 489.5,57.5 v 201 201 l -3.16452,6.67961 c -4.40441,9.29674 -10.07373,15.08753 -19.17485,19.58567 l -7.55648,3.73472 -199.55208,0.15569 c -118.1931,0.0922 -201.134898,-0.2184 -203.434331,-0.76185 z M 454.52794,458.80531 C 460.35346,456.15103 460,469.08326 460,258.59671 460,110.70276 459.71841,64.476088 458.80531,62.472058 456.15084,56.646127 469.13673,57 258,57 46.863271,57 59.849157,56.646127 57.194685,62.472058 55.34725,66.526736 55.544287,451.54993 57.395507,454.88993 c 2.951921,5.3259 -8.469807,5.03654 200.307443,5.07463 148.50093,0.0271 194.81999,-0.24571 196.82499,-1.15925 z"
       id="path1" />
  </g>
</svg>
